<mxfile host="app.diagrams.net" modified="2023-12-23T07:27:26.797Z" agent="Mozilla/5.0 (Windows NT 10.0; Win64; x64) AppleWebKit/537.36 (KHTML, like Gecko) Chrome/120.0.0.0 Safari/537.36" etag="LrFgmy1TpGFr6hQLwl53" version="22.1.11" type="device">
  <diagram name="Page-1" id="zoWXhu9OjsJh1nvla3KO">
    <mxGraphModel dx="1050" dy="557" grid="1" gridSize="10" guides="1" tooltips="1" connect="1" arrows="1" fold="1" page="1" pageScale="1" pageWidth="850" pageHeight="1100" math="0" shadow="0">
      <root>
        <mxCell id="0" />
        <mxCell id="1" parent="0" />
        <mxCell id="o1AAxm44Ju1NQ7rlXFdG-5" value="" style="ellipse;html=1;shape=startState;fillColor=#000000;strokeColor=#ff0000;" parent="1" vertex="1">
          <mxGeometry x="410" y="60" width="30" height="30" as="geometry" />
        </mxCell>
        <mxCell id="o1AAxm44Ju1NQ7rlXFdG-6" value="" style="edgeStyle=orthogonalEdgeStyle;html=1;verticalAlign=bottom;endArrow=open;endSize=8;strokeColor=default;rounded=0;entryX=0.5;entryY=0;entryDx=0;entryDy=0;" parent="1" edge="1">
          <mxGeometry relative="1" as="geometry">
            <mxPoint x="425" y="149" as="targetPoint" />
            <mxPoint x="425" y="85" as="sourcePoint" />
          </mxGeometry>
        </mxCell>
        <mxCell id="o1AAxm44Ju1NQ7rlXFdG-8" value="" style="endArrow=none;html=1;rounded=0;" parent="1" edge="1">
          <mxGeometry width="50" height="50" relative="1" as="geometry">
            <mxPoint x="540" y="289" as="sourcePoint" />
            <mxPoint x="500" y="289" as="targetPoint" />
          </mxGeometry>
        </mxCell>
        <mxCell id="o1AAxm44Ju1NQ7rlXFdG-10" value="" style="endArrow=classic;html=1;rounded=0;entryX=1;entryY=0.5;entryDx=0;entryDy=0;" parent="1" edge="1">
          <mxGeometry width="50" height="50" relative="1" as="geometry">
            <mxPoint x="540" y="168" as="sourcePoint" />
            <mxPoint x="490" y="168" as="targetPoint" />
          </mxGeometry>
        </mxCell>
        <mxCell id="o1AAxm44Ju1NQ7rlXFdG-11" value="&lt;b style=&quot;border-color: var(--border-color);&quot;&gt;TEACHER DASHBOARD&lt;/b&gt;" style="rounded=1;whiteSpace=wrap;html=1;" parent="1" vertex="1">
          <mxGeometry x="337" y="391" width="177" height="50" as="geometry" />
        </mxCell>
        <mxCell id="o1AAxm44Ju1NQ7rlXFdG-12" value="" style="endArrow=classic;html=1;rounded=0;" parent="1" edge="1">
          <mxGeometry width="50" height="50" relative="1" as="geometry">
            <mxPoint x="425" y="187" as="sourcePoint" />
            <mxPoint x="425" y="240" as="targetPoint" />
          </mxGeometry>
        </mxCell>
        <mxCell id="o1AAxm44Ju1NQ7rlXFdG-16" value="" style="endArrow=classic;html=1;rounded=0;entryX=0.492;entryY=0.3;entryDx=0;entryDy=0;entryPerimeter=0;" parent="1" edge="1">
          <mxGeometry width="50" height="50" relative="1" as="geometry">
            <mxPoint x="425.08" y="442" as="sourcePoint" />
            <mxPoint x="425.00000000000006" y="495" as="targetPoint" />
          </mxGeometry>
        </mxCell>
        <mxCell id="o1AAxm44Ju1NQ7rlXFdG-17" value="" style="endArrow=classic;html=1;rounded=0;entryX=0.492;entryY=0.3;entryDx=0;entryDy=0;entryPerimeter=0;" parent="1" edge="1">
          <mxGeometry width="50" height="50" relative="1" as="geometry">
            <mxPoint x="85.07999999999998" y="497" as="sourcePoint" />
            <mxPoint x="85.00000000000006" y="550" as="targetPoint" />
          </mxGeometry>
        </mxCell>
        <mxCell id="o1AAxm44Ju1NQ7rlXFdG-19" value="" style="endArrow=none;html=1;rounded=0;" parent="1" edge="1">
          <mxGeometry width="50" height="50" relative="1" as="geometry">
            <mxPoint x="85" y="497" as="sourcePoint" />
            <mxPoint x="735" y="497" as="targetPoint" />
          </mxGeometry>
        </mxCell>
        <mxCell id="o1AAxm44Ju1NQ7rlXFdG-23" value="&lt;b&gt;&lt;font style=&quot;font-size: 11px;&quot;&gt;VALID&lt;/font&gt;&lt;/b&gt;" style="text;html=1;strokeColor=none;fillColor=none;align=center;verticalAlign=middle;whiteSpace=wrap;rounded=0;" parent="1" vertex="1">
          <mxGeometry x="420" y="350" width="60" height="21" as="geometry" />
        </mxCell>
        <mxCell id="o1AAxm44Ju1NQ7rlXFdG-24" value="&lt;b&gt;VIEW PROFILE&lt;/b&gt;" style="rounded=1;whiteSpace=wrap;html=1;" parent="1" vertex="1">
          <mxGeometry x="10" y="550" width="170" height="40" as="geometry" />
        </mxCell>
        <mxCell id="o1AAxm44Ju1NQ7rlXFdG-25" value="&lt;b&gt;ADD STUDENT MARKS&lt;/b&gt;" style="rounded=1;whiteSpace=wrap;html=1;" parent="1" vertex="1">
          <mxGeometry x="220" y="550" width="180" height="40" as="geometry" />
        </mxCell>
        <mxCell id="o1AAxm44Ju1NQ7rlXFdG-28" value="&lt;b&gt;UPDATE LOGIN PASSWORD&lt;/b&gt;" style="rounded=1;whiteSpace=wrap;html=1;" parent="1" vertex="1">
          <mxGeometry x="650" y="550" width="180" height="40" as="geometry" />
        </mxCell>
        <mxCell id="o1AAxm44Ju1NQ7rlXFdG-30" value="" style="endArrow=classic;html=1;rounded=0;entryX=0.492;entryY=0.3;entryDx=0;entryDy=0;entryPerimeter=0;" parent="1" edge="1">
          <mxGeometry width="50" height="50" relative="1" as="geometry">
            <mxPoint x="306.08" y="497" as="sourcePoint" />
            <mxPoint x="306.00000000000006" y="550" as="targetPoint" />
          </mxGeometry>
        </mxCell>
        <mxCell id="o1AAxm44Ju1NQ7rlXFdG-31" value="" style="endArrow=classic;html=1;rounded=0;entryX=0.492;entryY=0.3;entryDx=0;entryDy=0;entryPerimeter=0;" parent="1" edge="1">
          <mxGeometry width="50" height="50" relative="1" as="geometry">
            <mxPoint x="735.0799999999999" y="497" as="sourcePoint" />
            <mxPoint x="735" y="550" as="targetPoint" />
          </mxGeometry>
        </mxCell>
        <mxCell id="o1AAxm44Ju1NQ7rlXFdG-32" value="&lt;b&gt;AUTHENTICATION&lt;/b&gt;" style="shape=rhombus;perimeter=rhombusPerimeter;whiteSpace=wrap;html=1;align=center;" parent="1" vertex="1">
          <mxGeometry x="350.5" y="239" width="150" height="100" as="geometry" />
        </mxCell>
        <mxCell id="o1AAxm44Ju1NQ7rlXFdG-33" value="&lt;b style=&quot;border-color: var(--border-color);&quot;&gt;LOGIN&lt;/b&gt;" style="rounded=1;whiteSpace=wrap;html=1;" parent="1" vertex="1">
          <mxGeometry x="360" y="150" width="130" height="37" as="geometry" />
        </mxCell>
        <mxCell id="o1AAxm44Ju1NQ7rlXFdG-35" value="" style="endArrow=classic;html=1;rounded=0;entryX=0.492;entryY=0.3;entryDx=0;entryDy=0;entryPerimeter=0;" parent="1" edge="1">
          <mxGeometry width="50" height="50" relative="1" as="geometry">
            <mxPoint x="425.08" y="338" as="sourcePoint" />
            <mxPoint x="425.00000000000006" y="391" as="targetPoint" />
          </mxGeometry>
        </mxCell>
        <mxCell id="o1AAxm44Ju1NQ7rlXFdG-38" value="&lt;b&gt;&lt;font style=&quot;font-size: 11px;&quot;&gt;INVALID&lt;/font&gt;&lt;/b&gt;" style="text;html=1;strokeColor=none;fillColor=none;align=center;verticalAlign=middle;whiteSpace=wrap;rounded=0;" parent="1" vertex="1">
          <mxGeometry x="483" y="210" width="60" height="21" as="geometry" />
        </mxCell>
        <mxCell id="o1AAxm44Ju1NQ7rlXFdG-40" value="" style="endArrow=none;html=1;rounded=0;" parent="1" edge="1">
          <mxGeometry width="50" height="50" relative="1" as="geometry">
            <mxPoint x="539" y="289" as="sourcePoint" />
            <mxPoint x="539" y="168" as="targetPoint" />
          </mxGeometry>
        </mxCell>
        <mxCell id="o1AAxm44Ju1NQ7rlXFdG-47" value="&lt;b style=&quot;border-color: var(--border-color);&quot;&gt;LOGOUT&lt;/b&gt;" style="rounded=1;whiteSpace=wrap;html=1;" parent="1" vertex="1">
          <mxGeometry x="360" y="690" width="130" height="37" as="geometry" />
        </mxCell>
        <mxCell id="o1AAxm44Ju1NQ7rlXFdG-48" value="" style="ellipse;html=1;shape=endState;fillColor=#000000;strokeColor=#ff0000;" parent="1" vertex="1">
          <mxGeometry x="410" y="766" width="30" height="30" as="geometry" />
        </mxCell>
        <mxCell id="o1AAxm44Ju1NQ7rlXFdG-49" value="" style="endArrow=classic;html=1;rounded=0;" parent="1" edge="1">
          <mxGeometry width="50" height="50" relative="1" as="geometry">
            <mxPoint x="425.08" y="727" as="sourcePoint" />
            <mxPoint x="425" y="767" as="targetPoint" />
          </mxGeometry>
        </mxCell>
        <mxCell id="o1AAxm44Ju1NQ7rlXFdG-50" value="" style="endArrow=classic;html=1;rounded=0;entryX=0.492;entryY=0.3;entryDx=0;entryDy=0;entryPerimeter=0;" parent="1" edge="1">
          <mxGeometry width="50" height="50" relative="1" as="geometry">
            <mxPoint x="424.08" y="637" as="sourcePoint" />
            <mxPoint x="424.00000000000006" y="690" as="targetPoint" />
          </mxGeometry>
        </mxCell>
        <mxCell id="JaFqMH3K1qLlUGnAM9fQ-2" value="&lt;b&gt;UPDATE STUDENT MARKS&lt;/b&gt;" style="rounded=1;whiteSpace=wrap;html=1;" vertex="1" parent="1">
          <mxGeometry x="440" y="550" width="180" height="40" as="geometry" />
        </mxCell>
        <mxCell id="JaFqMH3K1qLlUGnAM9fQ-3" value="" style="endArrow=classic;html=1;rounded=0;entryX=0.492;entryY=0.3;entryDx=0;entryDy=0;entryPerimeter=0;" edge="1" parent="1">
          <mxGeometry width="50" height="50" relative="1" as="geometry">
            <mxPoint x="531.0799999999999" y="496" as="sourcePoint" />
            <mxPoint x="531" y="549" as="targetPoint" />
          </mxGeometry>
        </mxCell>
        <mxCell id="JaFqMH3K1qLlUGnAM9fQ-4" value="" style="endArrow=none;html=1;rounded=0;" edge="1" parent="1">
          <mxGeometry width="50" height="50" relative="1" as="geometry">
            <mxPoint x="85" y="637" as="sourcePoint" />
            <mxPoint x="735" y="637" as="targetPoint" />
          </mxGeometry>
        </mxCell>
        <mxCell id="JaFqMH3K1qLlUGnAM9fQ-5" value="" style="endArrow=classic;html=1;rounded=0;entryX=0.492;entryY=0.3;entryDx=0;entryDy=0;entryPerimeter=0;" edge="1" parent="1">
          <mxGeometry width="50" height="50" relative="1" as="geometry">
            <mxPoint x="85" y="590" as="sourcePoint" />
            <mxPoint x="85.00000000000006" y="638" as="targetPoint" />
          </mxGeometry>
        </mxCell>
        <mxCell id="JaFqMH3K1qLlUGnAM9fQ-6" value="" style="endArrow=classic;html=1;rounded=0;entryX=0.492;entryY=0.3;entryDx=0;entryDy=0;entryPerimeter=0;" edge="1" parent="1">
          <mxGeometry width="50" height="50" relative="1" as="geometry">
            <mxPoint x="306" y="591" as="sourcePoint" />
            <mxPoint x="306.00000000000006" y="639" as="targetPoint" />
          </mxGeometry>
        </mxCell>
        <mxCell id="JaFqMH3K1qLlUGnAM9fQ-7" value="" style="endArrow=classic;html=1;rounded=0;entryX=0.492;entryY=0.3;entryDx=0;entryDy=0;entryPerimeter=0;" edge="1" parent="1">
          <mxGeometry width="50" height="50" relative="1" as="geometry">
            <mxPoint x="529" y="591" as="sourcePoint" />
            <mxPoint x="529" y="639" as="targetPoint" />
          </mxGeometry>
        </mxCell>
        <mxCell id="JaFqMH3K1qLlUGnAM9fQ-8" value="" style="endArrow=classic;html=1;rounded=0;entryX=0.492;entryY=0.3;entryDx=0;entryDy=0;entryPerimeter=0;" edge="1" parent="1">
          <mxGeometry width="50" height="50" relative="1" as="geometry">
            <mxPoint x="734.5" y="590" as="sourcePoint" />
            <mxPoint x="734.5" y="638" as="targetPoint" />
          </mxGeometry>
        </mxCell>
      </root>
    </mxGraphModel>
  </diagram>
</mxfile>
